<svg width="23" height="21" viewBox="0 0 23 21" fill="none" xmlns="http://www.w3.org/2000/svg">
<path d="M19.4789 12.97H8.16536L8.41795 14.205H18.7772C19.3716 14.205 19.8121 14.7569 19.6804 15.3365L19.4675 16.2734C20.1889 16.6236 20.6863 17.363 20.6863 18.2187C20.6863 19.423 19.7014 20.3971 18.4932 20.3798C17.3422 20.3632 16.3956 19.4292 16.3646 18.2785C16.3476 17.6499 16.5994 17.0802 17.0131 16.675H8.92195C9.32244 17.0673 9.57125 17.6138 9.57125 18.2187C9.57125 19.4465 8.54744 20.4352 7.30696 20.3776C6.20549 20.3265 5.30969 19.4365 5.2518 18.3353C5.20711 17.485 5.65456 16.7354 6.33439 16.3444L3.6233 3.09H0.92625C0.41469 3.09 0 2.67531 0 2.16375V1.54625C0 1.03469 0.41469 0.619995 0.92625 0.619995H4.88323C5.32324 0.619995 5.7025 0.929556 5.79068 1.36061L6.14443 3.09H21.3034C21.8978 3.09 22.3383 3.64192 22.2066 4.22153L20.3821 12.249C20.2863 12.6707 19.9114 12.97 19.4789 12.97ZM15.7463 7.10375H13.8938V5.56C13.8938 5.21894 13.6173 4.9425 13.2763 4.9425H12.6588C12.3177 4.9425 12.0413 5.21894 12.0413 5.56V7.10375H10.1888C9.8477 7.10375 9.57125 7.38019 9.57125 7.72125V8.33875C9.57125 8.6798 9.8477 8.95625 10.1888 8.95625H12.0413V10.5C12.0413 10.8411 12.3177 11.1175 12.6588 11.1175H13.2763C13.6173 11.1175 13.8938 10.8411 13.8938 10.5V8.95625H15.7463C16.0873 8.95625 16.3638 8.6798 16.3638 8.33875V7.72125C16.3638 7.38019 16.0873 7.10375 15.7463 7.10375Z" fill="black"/>
</svg>
