<svg width="511" height="131" viewBox="0 0 511 131" fill="none" xmlns="http://www.w3.org/2000/svg">
<g filter="url(#filter0_di_87_69)">
<path d="M4.375 90C1.45833 90 0 88.4375 0 85.3125V5.0625C0 1.9375 1.45833 0.375 4.375 0.375H13.625C17.2083 0.375 19.9167 1.83333 21.75 4.75L53.625 55.9375H54.0625C53.8542 53.4375 53.75 50.9375 53.75 48.4375V5.0625C53.75 1.9375 55.2083 0.375 58.125 0.375H67.625C70.5417 0.375 72 1.9375 72 5.0625V85.3125C72 88.4375 70.5417 90 67.625 90H59C55.4167 90 52.7083 88.5417 50.875 85.625L18.375 33.5H17.9375C18.1458 36 18.25 38.5 18.25 41V85.3125C18.25 88.4375 16.7917 90 13.875 90H4.375ZM87 57.1875C87 46.6458 89.625 38.3333 94.875 32.25C100.167 26.1667 107.625 23.125 117.25 23.125C128.417 23.125 136.708 26 142.125 31.75C147.542 37.5 150.25 46.75 150.25 59.5C150.25 62 149.083 63.25 146.75 63.25H105.5C106.167 70.1667 107.875 74.5208 110.625 76.3125C113.375 78.1042 116.562 79 120.188 79C123.646 79 126.292 78.5417 128.125 77.625C129.958 76.7083 131.5 75.4583 132.75 73.875C134.167 72.0417 135.917 71.75 138 73L144.25 76.8125C146.708 78.3125 147.062 80.1042 145.312 82.1875C142.771 85.2292 139.792 87.5 136.375 89C132.958 90.5 127.562 91.25 120.188 91.25C108.229 91.25 99.7083 88.2083 94.625 82.125C89.5417 76.0417 87 67.7292 87 57.1875ZM105.562 50.75H132.75C132.75 46.25 131.625 42.5833 129.375 39.75C127.125 36.875 123.542 35.4375 118.625 35.4375C114.708 35.4375 111.604 36.8125 109.312 39.5625C107.021 42.2708 105.771 46 105.562 50.75ZM160.375 72.5C160.375 64.1667 164.354 58.125 172.312 54.375C180.271 50.625 189.354 48.625 199.562 48.375V45.875C199.562 42.0417 198.604 39.3333 196.688 37.75C194.771 36.1667 192.104 35.375 188.688 35.375C186.271 35.375 184.125 35.7292 182.25 36.4375C180.417 37.1042 178.812 37.8958 177.438 38.8125C176.104 39.6875 174.896 40.5833 173.812 41.5C171.896 43.1667 170.312 43.25 169.062 41.75L163.875 35.375C162.583 33.7917 162.896 32.1667 164.812 30.5C166.271 29.2083 167.958 28.0833 169.875 27.125C171.833 26.1667 174.417 25.2708 177.625 24.4375C180.833 23.5625 185 23.125 190.125 23.125C198.792 23.125 205.438 25.125 210.062 29.125C214.729 33.125 217.062 39.0208 217.062 46.8125V86.25C217.062 88.75 215.812 90 213.312 90H203.062C200.812 90 199.688 88.75 199.688 86.25V84.375H199.562C197.104 86.75 194.146 88.5 190.688 89.625C187.271 90.7083 184.125 91.25 181.25 91.25C174.417 91.25 169.229 89.5833 165.688 86.25C162.146 82.875 160.375 78.2917 160.375 72.5ZM178.875 72.125C178.875 73.5833 179.167 74.8542 179.75 75.9375C180.333 76.9792 181.25 77.75 182.5 78.25C183.75 78.75 185.146 79 186.688 79C188.812 79 190.875 78.7083 192.875 78.125C194.875 77.5417 197.104 76.1667 199.562 74V60.4375C192.562 61.2292 187.875 62.25 185.5 63.5C183.125 64.75 181.417 66.0417 180.375 67.375C179.375 68.7083 178.875 70.2917 178.875 72.125ZM237.875 90C235.375 90 234.125 88.75 234.125 86.25V28.125C234.125 25.625 235.375 24.375 237.875 24.375H247.75C250.25 24.375 251.5 25.625 251.5 28.125V33.25H251.75C252.833 30.5833 254.646 28.2292 257.188 26.1875C259.729 24.1458 262.729 23.125 266.188 23.125C268.562 23.125 270.521 23.4167 272.062 24C273.521 24.5417 274.083 25.5417 273.75 27L272 34.4375C271.625 36.1042 270.5 36.6042 268.625 35.9375C267.542 35.5625 266.5 35.375 265.5 35.375C261.5 35.375 258.188 37.7708 255.562 42.5625C252.938 47.3542 251.625 54.3333 251.625 63.5V86.25C251.625 88.75 250.375 90 247.875 90H237.875ZM289.75 90C286.417 90 284.75 88.4375 284.75 85.3125V5.0625C284.75 1.9375 286.417 0.375 289.75 0.375H311C327 0.375 337.792 2.35417 343.375 6.3125C349 10.2292 351.812 16.2708 351.812 24.4375C351.812 30.1458 349.708 34.5625 345.5 37.6875C341.333 40.8125 337.292 42.625 333.375 43.125V43.3125C337.167 43.5625 341.625 45.4792 346.75 49.0625C351.875 52.6458 354.438 57.7083 354.438 64.25C354.438 71.9167 351.312 78.125 345.062 82.875C338.812 87.625 328.5 90 314.125 90H289.75ZM303 74.75H312.125C320.958 74.75 326.958 73.9792 330.125 72.4375C333.333 70.8958 334.938 67.7708 334.938 63.0625C334.938 58.6458 333.083 55.6042 329.375 53.9375C325.708 52.2292 319.958 51.375 312.125 51.375H303V74.75ZM303 36.625H311.188C316.562 36.625 321.583 35.6875 326.25 33.8125C330.958 31.9375 333.312 29.0208 333.312 25.0625C333.312 21.9792 332 19.6458 329.375 18.0625C326.792 16.4375 320.729 15.625 311.188 15.625H303V36.625ZM369.375 62.75V28.125C369.375 25.625 370.625 24.375 373.125 24.375H383.125C385.625 24.375 386.875 25.625 386.875 28.125V58.25C386.875 67.3333 387.5 73.0625 388.75 75.4375C390 77.8125 392.625 79 396.625 79C400.875 79 404.104 77.3125 406.312 73.9375C408.521 70.5208 409.625 63.4583 409.625 52.75V28.125C409.625 25.625 410.875 24.375 413.375 24.375H423.375C425.875 24.375 427.125 25.625 427.125 28.125V86.25C427.125 88.75 425.875 90 423.375 90H413.5C411 90 409.75 88.75 409.75 86.25V82.625H409.5C407.583 85.9167 405.146 88.1875 402.188 89.4375C399.229 90.6458 395.729 91.25 391.688 91.25C385.312 91.25 380 89.2083 375.75 85.125C371.5 81.0417 369.375 73.5833 369.375 62.75ZM440.062 29.25C438.938 26 439.625 24.375 442.125 24.375H453.312C455.229 24.375 456.479 25.4375 457.062 27.5625L466.5 62.5C466.958 64.125 467.354 66.2292 467.688 68.8125C468.062 71.3542 468.25 72.9792 468.25 73.6875H468.625C469.125 71.4792 469.479 69.7292 469.688 68.4375C469.938 67.1042 470.583 64.5417 471.625 60.75L480.562 27.5625C481.146 25.4375 482.396 24.375 484.312 24.375H495.5C497.958 24.375 498.646 26 497.562 29.25L476.5 92.625C474.042 100.042 471.021 105.833 467.438 110C463.854 114.167 458.875 116.25 452.5 116.25C449 116.25 445.875 115.958 443.125 115.375C441.542 115.042 440.938 113.958 441.312 112.125L442.688 105.25C443.062 103.458 444.125 102.833 445.875 103.375C447.167 103.792 448.375 104 449.5 104C452.875 104 455.438 102.396 457.188 99.1875C458.979 95.9792 460.167 93.2292 460.75 90.9375L460.938 90L440.062 29.25Z" fill="#F6CD13"/>
</g>
<defs>
<filter id="filter0_di_87_69" x="0" y="0.375" width="510.188" height="129.875" filterUnits="userSpaceOnUse" color-interpolation-filters="sRGB">
<feFlood flood-opacity="0" result="BackgroundImageFix"/>
<feColorMatrix in="SourceAlpha" type="matrix" values="0 0 0 0 0 0 0 0 0 0 0 0 0 0 0 0 0 0 127 0" result="hardAlpha"/>
<feOffset dx="7" dy="10"/>
<feGaussianBlur stdDeviation="2"/>
<feComposite in2="hardAlpha" operator="out"/>
<feColorMatrix type="matrix" values="0 0 0 0 0 0 0 0 0 0 0 0 0 0 0 0 0 0 0.25 0"/>
<feBlend mode="normal" in2="BackgroundImageFix" result="effect1_dropShadow_87_69"/>
<feBlend mode="normal" in="SourceGraphic" in2="effect1_dropShadow_87_69" result="shape"/>
<feColorMatrix in="SourceAlpha" type="matrix" values="0 0 0 0 0 0 0 0 0 0 0 0 0 0 0 0 0 0 127 0" result="hardAlpha"/>
<feOffset dx="6" dy="-4"/>
<feComposite in2="hardAlpha" operator="arithmetic" k2="-1" k3="1"/>
<feColorMatrix type="matrix" values="0 0 0 0 0 0 0 0 0 0 0 0 0 0 0 0 0 0 0.25 0"/>
<feBlend mode="normal" in2="shape" result="effect2_innerShadow_87_69"/>
</filter>
</defs>
</svg>
